<svg width="256" height="256" viewBox="0 0 256 256" fill="none" xmlns="http://www.w3.org/2000/svg">
  <rect width="256" height="256" rx="64" fill="#0F172A"/>
  <rect x="34" y="44" width="188" height="168" rx="26" fill="#FFF8EB"/>
  <path d="M74 94C74 76 86 66 104 66V80C94 80 90 84 90 94V112H74V94ZM116 94C116 76 128 66 146 66V80C136 80 132 84 132 94V112H116V94Z" fill="#0F172A"/>
  <rect x="64" y="132" width="128" height="20" rx="10" fill="#FDE68A"/>
  <rect x="64" y="160" width="92" height="20" rx="10" fill="#7DD3FC"/>
  <rect x="64" y="132" width="18" height="48" rx="9" fill="#F59E0B"/>
</svg>
